# xmcd
#
# Track frame offsets:
#	150
#	24083
#	44248
#	58798
#	85940
#	111615
#	129623
#	169925
#	182547
#	201254
#	237594
#	265442
#	290619
#	318787
#
# Disc length: 4556 seconds
#
# Revision: 0
# Processed by: cddbd v1.5.2PL0 Copyright (c) Steve Scherf et al.
# Submitted via: EasyCDDAExtractor 9.0.0.1
#
DISCID=d611ca0e
DTITLE=Deep Purple - Elispace Beauvais 26-03-07 Master Disc 1
DYEAR=2007
DGENRE=Hard Rock
TTITLE0=Pictures Of Home
TTITLE1=Things I Never Said
TTITLE2=Into The Fire
TTITLE3=Strange Kind Of Woman
TTITLE4=Rapture Of The Deep
TTITLE5=Fireball
TTITLE6=Steve Morse Solo
TTITLE7=The Well Dressed Guitar
TTITLE8=When A Blind Man Cries
TTITLE9=Lazy
TTITLE10=The Battle Rages On
TTITLE11=Don Airey Keyboard Solo
TTITLE12=Perfect Strangers
TTITLE13=Space Truckin'
EXTD=
EXTT0=
EXTT1=
EXTT2=
EXTT3=
EXTT4=
EXTT5=
EXTT6=
EXTT7=
EXTT8=
EXTT9=
EXTT10=
EXTT11=
EXTT12=
EXTT13=
PLAYORDER=
